<?xml version="1.0" encoding="UTF-8" standalone="no"?>
<!DOCTYPE svg PUBLIC "-//W3C//DTD SVG 1.1//EN" "http://www.w3.org/Graphics/SVG/1.1/DTD/svg11.dtd">
<svg width="100%" height="100%" viewBox="0 0 1000 1000" version="1.1" xmlns="http://www.w3.org/2000/svg" xmlns:xlink="http://www.w3.org/1999/xlink" xml:space="preserve" xmlns:serif="http://www.serif.com/" style="fill-rule:evenodd;clip-rule:evenodd;stroke-linejoin:round;stroke-miterlimit:2;">
    <g>
        <path d="M552.3,562.6L176.7,562.6C84.5,562.6 10,637.2 10,729.4L10,854.6C10,900.5 47.3,937.9 93.4,937.9L635.5,937.9C681.5,937.9 718.9,900.6 718.9,854.6L718.9,729.4C718.9,637.2 644.3,562.6 552.3,562.6Z" style="fill-rule:nonzero;"/>
        <g transform="matrix(0.744981,0,0,0.610484,92.9418,292.234)">
            <path d="M552.3,562.6L176.7,562.6C84.5,562.6 10,637.2 10,729.4L10,854.6C10,900.5 47.3,937.9 93.4,937.9L635.5,937.9C681.5,937.9 718.9,900.6 718.9,854.6L718.9,729.4C718.9,637.2 644.3,562.6 552.3,562.6Z" style="fill:white;fill-rule:nonzero;"/>
        </g>
        <path d="M135.1,291.5C135.1,418.2 237.8,520.9 364.5,520.9C491.2,520.9 593.9,418.2 593.9,291.5C593.9,164.8 491.2,62.1 364.5,62.1C237.8,62.1 135.1,164.8 135.1,291.5Z" style="fill-rule:nonzero;"/>
        <g transform="matrix(0.666443,0,0,0.666443,121.582,97.2319)">
            <path d="M135.1,291.5C135.1,418.2 237.8,520.9 364.5,520.9C491.2,520.9 593.9,418.2 593.9,291.5C593.9,164.8 491.2,62.1 364.5,62.1C237.8,62.1 135.1,164.8 135.1,291.5Z" style="fill:white;fill-rule:nonzero;"/>
        </g>
        <g transform="matrix(1.03092,1.07419e-16,-1.05893e-16,1.04578,-20.6066,-134.724)">
            <path d="M948.4,458.3L864.9,458.3L864.9,374.8C864.9,351.9 846.2,333.2 823.2,333.2C800,333.2 781.5,351.8 781.5,374.8L781.5,458.3L698,458.3C675.1,458.3 656.4,477 656.4,500C656.4,523.2 675,541.7 698,541.7L781.5,541.7L781.5,625.2C781.5,648.1 800.2,666.8 823.2,666.8C846.4,666.8 864.9,648.2 864.9,625.2L864.9,541.7L948.4,541.7C971.3,541.7 990,523 990,500C990,476.8 971.4,458.3 948.4,458.3Z" style="fill-rule:nonzero;"/>
        </g>
    </g>
</svg>
