<?xml version="1.0" encoding="UTF-8" standalone="no"?>
<!DOCTYPE svg PUBLIC "-//W3C//DTD SVG 1.1//EN" "http://www.w3.org/Graphics/SVG/1.1/DTD/svg11.dtd">
<svg width="100%" height="100%" viewBox="0 0 1000 1000" version="1.1" xmlns="http://www.w3.org/2000/svg" xmlns:xlink="http://www.w3.org/1999/xlink" xml:space="preserve" xmlns:serif="http://www.serif.com/" style="fill-rule:evenodd;clip-rule:evenodd;stroke-linejoin:round;stroke-miterlimit:2;">
    <g>
        <path d="M552.3,562.6L176.7,562.6C84.5,562.6 10,637.2 10,729.4L10,854.6C10,900.5 47.3,937.9 93.4,937.9L635.5,937.9C681.5,937.9 718.9,900.6 718.9,854.6L718.9,729.4C718.9,637.2 644.3,562.6 552.3,562.6Z" style="fill-rule:nonzero;"/>
        <g transform="matrix(0.744981,0,0,0.610484,92.9418,292.234)">
            <path d="M552.3,562.6L176.7,562.6C84.5,562.6 10,637.2 10,729.4L10,854.6C10,900.5 47.3,937.9 93.4,937.9L635.5,937.9C681.5,937.9 718.9,900.6 718.9,854.6L718.9,729.4C718.9,637.2 644.3,562.6 552.3,562.6Z" style="fill:white;fill-rule:nonzero;"/>
        </g>
        <path d="M135.1,291.5C135.1,418.2 237.8,520.9 364.5,520.9C491.2,520.9 593.9,418.2 593.9,291.5C593.9,164.8 491.2,62.1 364.5,62.1C237.8,62.1 135.1,164.8 135.1,291.5Z" style="fill-rule:nonzero;"/>
        <g transform="matrix(0.666443,0,0,0.666443,121.582,97.2319)">
            <path d="M135.1,291.5C135.1,418.2 237.8,520.9 364.5,520.9C491.2,520.9 593.9,418.2 593.9,291.5C593.9,164.8 491.2,62.1 364.5,62.1C237.8,62.1 135.1,164.8 135.1,291.5Z" style="fill:white;fill-rule:nonzero;"/>
        </g>
        <g transform="matrix(1,0,0,1,40.1659,-56.9646)">
            <g transform="matrix(1.00318,0,0,1.35849,60.748,104.47)">
                <path d="M794.659,127.73C794.659,120.011 786.172,113.744 775.719,113.744L737.84,113.744C727.387,113.744 718.9,120.011 718.9,127.73L718.9,365.181C718.9,372.9 727.387,379.167 737.84,379.167L775.719,379.167C786.172,379.167 794.659,372.9 794.659,365.181L794.659,127.73Z"/>
            </g>
            <g transform="matrix(1.15181,0,0,1.35126,-54.0341,149.851)">
                <path d="M849.279,94.829C849.279,87.069 841.888,80.768 832.783,80.768L684.774,80.768C675.67,80.768 668.279,87.069 668.279,94.829L668.279,122.95C668.279,130.711 675.67,137.011 684.774,137.011L832.783,137.011C841.888,137.011 849.279,130.711 849.279,122.95L849.279,94.829Z"/>
            </g>
            <g transform="matrix(1.15181,0,0,1.35128,-54.0341,434.422)">
                <path d="M849.279,94.829C849.279,87.069 841.887,80.768 832.783,80.768L684.775,80.768C675.67,80.768 668.279,87.069 668.279,94.829L668.279,122.95C668.279,130.711 675.67,137.011 684.775,137.011L832.783,137.011C841.887,137.011 849.279,130.711 849.279,122.95L849.279,94.829Z"/>
            </g>
        </g>
    </g>
</svg>
